<svg xmlns="http://www.w3.org/2000/svg" version="1.1" xmlns:xlink="http://www.w3.org/1999/xlink" xmlns:svgjs="http://svgjs.dev/svgjs" width="1000" height="623" viewBox="0 0 1000 623"><g transform="matrix(1,0,0,1,-0.6060606060606233,0.2522267206477977)"><svg viewBox="0 0 396 247" data-background-color="#ffffff" preserveAspectRatio="xMidYMid meet" height="623" width="1000" xmlns="http://www.w3.org/2000/svg" xmlns:xlink="http://www.w3.org/1999/xlink"><g id="tight-bounds" transform="matrix(1,0,0,1,0.2400000000000091,-0.09999999999999432)"><svg viewBox="0 0 395.52 247.2" height="247.2" width="395.52"><g><svg></svg></g><g><svg viewBox="0 0 395.52 247.2" height="247.2" width="395.52"><g transform="matrix(1,0,0,1,75.54432,66.396272)"><svg viewBox="0 0 244.43135999999998 114.407456" height="114.407456" width="244.43135999999998"><g><svg viewBox="0 0 244.43135999999998 114.407456" height="114.407456" width="244.43135999999998"><g><svg viewBox="0 0 244.43135999999998 114.407456" height="114.407456" width="244.43135999999998"><g><svg viewBox="0 0 244.43135999999998 114.407456" height="114.407456" width="244.43135999999998"><g id="textblocktransform"><svg viewBox="0 0 244.43135999999998 114.407456" height="114.407456" width="244.43135999999998" id="textblock"><g><svg viewBox="0 0 244.43135999999998 114.407456" height="114.407456" width="244.43135999999998"><g transform="matrix(1,0,0,1,0,0)"><svg width="244.43135999999998" viewBox="3.25 -33.7 72 33.7" height="114.407456" data-palette-color="#747fe0"><path d="M10.95 0L3.25 0 3.25-33.7 10.95-33.7 10.95 0ZM31.35-33.7L20.3-16.85 32.25 0 22.6 0 11.3-16.75 22.2-33.7 31.35-33.7ZM43.3 0L35.6 0 38.5-33.7 46.95-33.7 51.65-21.5Q52.85-18.45 53.7-15.9 54.55-13.35 54.8-12.3L54.8-12.3 55.05-11.3Q55.85-14.6 58.55-21.5L58.55-21.5 63.3-33.7 71.75-33.7 75.25 0 67.55 0 66.3-13.05 65.65-22.9Q64.35-19.15 62.05-13.05L62.05-13.05 57.3-0.35 52.75-0.35 48.05-13.05Q46.9-16.15 46.1-18.6 45.3-21.05 45.05-22L45.05-22 44.8-22.9Q44.8-19.35 44.35-13.05L44.35-13.05 43.3 0Z" opacity="1" transform="matrix(1,0,0,1,0,0)" fill="#747fe0" class="wordmark-text-0" data-fill-palette-color="primary" id="text-0"></path></svg></g></svg></g></svg></g></svg></g></svg></g></svg></g></svg></g><g><path d="M245.816 0c68.262 0 123.6 55.338 123.6 123.6 0 68.262-55.338 123.6-123.6 123.6-41.967 0-79.049-20.916-101.391-52.892l6.362 0c21.592 28.971 56.119 47.733 95.029 47.733 65.413 0 118.441-53.028 118.441-118.441 0-65.413-53.028-118.441-118.441-118.441-38.91 0-73.437 18.762-95.029 47.733l-6.362 0c22.341-31.976 59.423-52.892 101.391-52.892z" fill="#1b1b1b" stroke="transparent" data-fill-palette-color="tertiary"></path></g></svg></g><defs></defs></svg><rect width="395.52" height="247.2" fill="none" stroke="none" visibility="hidden"></rect></g></svg></g></svg>