<?xml version="1.0" encoding="UTF-8" standalone="no"?>
<svg
   height="316"
   viewBox="0 0 446 316"
   width="446"
   version="1.1"
   id="svg2099"
   sodipodi:docname="decor-horizontal-waves-sym.svg"
   inkscape:version="1.2.2 (b0a8486, 2022-12-01)"
   inkscape:export-filename="../../repos/portfolio/public/images/projects/decor-horizontal-waves.svg"
   inkscape:export-xdpi="96"
   inkscape:export-ydpi="96"
   xmlns:inkscape="http://www.inkscape.org/namespaces/inkscape"
   xmlns:sodipodi="http://sodipodi.sourceforge.net/DTD/sodipodi-0.dtd"
   xmlns="http://www.w3.org/2000/svg"
   xmlns:svg="http://www.w3.org/2000/svg">
  <defs
     id="defs2103" />
  <sodipodi:namedview
     id="namedview2101"
     pagecolor="#ffffff"
     bordercolor="#000000"
     borderopacity="0.25"
     inkscape:showpageshadow="2"
     inkscape:pageopacity="0.0"
     inkscape:pagecheckerboard="0"
     inkscape:deskcolor="#d1d1d1"
     showgrid="true"
     inkscape:zoom="1.4789411"
     inkscape:cx="121.03254"
     inkscape:cy="156.53091"
     inkscape:window-width="1162"
     inkscape:window-height="763"
     inkscape:window-x="171"
     inkscape:window-y="99"
     inkscape:window-maximized="0"
     inkscape:current-layer="g2097"
     showguides="false">
    <inkscape:grid
       type="xygrid"
       id="grid291" />
  </sodipodi:namedview>
  <g
     fill="none"
     fill-rule="evenodd"
     id="g2097">
    <rect
       style="display:none;fill:#74e08c;fill-opacity:0.406685;stroke-width:43.6358;stroke-miterlimit:0.4;stroke-dasharray:87.2716, 43.6358;stroke-dashoffset:170.18;paint-order:stroke fill markers"
       id="rect12996"
       width="467.63745"
       height="355.82639"
       x="-7.7353511"
       y="-4.2192855"
       inkscape:label="rect12996" />
    <path
       d="M 274.54905,316 H 446 V 0 H 67.636959 C 67.311391,-3.5362758 98.567388,39.153847 99.772378,86.565698 91.802156,127.68242 72.99589,160.8722 68.06085,181.24228 c -4.00198,16.51869 14.419195,48.30062 22.366012,64.00486 10.886388,21.51331 15.429868,48.46652 29.132078,70.65906 z"
       fill="#ffffff"
       id="path2091"
       sodipodi:nodetypes="cccccsscc"
       inkscape:export-filename="../repos/portfolio/public/images/projects/decor-horizontal-2.svg"
       inkscape:export-xdpi="96"
       inkscape:export-ydpi="96"
       style="display:none" />
    <path
       style="display:none;fill:#747fe0;fill-opacity:0.470752;stroke-width:44.384;stroke-miterlimit:0.4;stroke-dasharray:88.768, 44.384;stroke-dashoffset:173.098;paint-order:stroke fill markers"
       d="m 6.2696625,-0.06091846 c 0,0 33.4406005,34.55162746 36.0908265,56.83713346 C 46.26938,89.64571 17.75959,126.20316 10.274276,150.75293 -3.5623893,196.1334 47.621408,289.71856 55.633268,316.49554 l 63.315902,-0.007 C 108.3659,271.23791 59.40718,210.28045 70.197711,171.88796 75.603876,152.65293 108.37365,85.57555 97.844712,47.398172 89.896382,18.577943 62.253835,-0.01375205 62.253835,-0.01375205 Z"
       id="path4963"
       sodipodi:nodetypes="cssccsscc"
       inkscape:export-filename="../repos/portfolio/public/images/projects/decor-horizontal-2.svg"
       inkscape:export-xdpi="96"
       inkscape:export-ydpi="96"
       inkscape:label="path4963" />
    <rect
       style="display:none;fill:#ff0000;fill-opacity:0.206128;stroke-width:44.384;stroke-miterlimit:0.4;stroke-dasharray:88.768, 44.384;stroke-dashoffset:173.098;paint-order:stroke fill markers"
       id="rect6569"
       width="488.25879"
       height="353.19064"
       x="-16.778652"
       y="-14.261855"
       inkscape:export-filename="../repos/portfolio/public/images/projects/decor-horizontal-2.svg"
       inkscape:export-xdpi="96"
       inkscape:export-ydpi="96" />
    <path
       style="display:none;fill:#737ddf;fill-opacity:0.2;stroke-width:53.7092;stroke-miterlimit:0.4;stroke-dasharray:107.418, 53.7092;stroke-dashoffset:209.467;paint-order:stroke fill markers"
       d="m -15.175602,-4.8160672 c 0,0 -26.75823,33.6220322 -24.005509,52.7404382 2.718077,18.877797 33.4918166,24.613232 37.4322796,43.274205 6.184518,29.288194 -25.8643786,55.941034 -26.2750326,85.872254 -0.2887,21.04238 18.9692676,39.92118 16.808801,60.85435 -2.888407,27.98633 -38.615252,75.0537 -38.615252,75.0537 l -46.536327,0.67616 c 0,0 31.215018,-39.67188 34.848781,-63.55899 3.804126,-25.00702 -18.450369,-49.31295 -15.046088,-74.37754 3.435575,-25.295 36.528191,-44.23398 34.654712,-68.29211 -1.64649,-21.14326 -39.818622,-36.300914 -39.605387,-57.473551 0.202019,-20.058923 38.615252,-54.0927567 38.615252,-54.0927567 z"
       id="path2837"
       sodipodi:nodetypes="caaaaccaaaacc" />
    <path
       style="fill:#c2e1f5;fill-opacity:0.64999998;stroke:none;stroke-width:0.996895;stroke-miterlimit:0.4;stroke-dasharray:none;stroke-dashoffset:11.7;stroke-opacity:1;paint-order:stroke fill markers"
       d="M 38.971327,0.4625144 C 38.614289,20.744054 21.856726,39.6757 21.744765,59.86392 c -0.112412,20.269248 16.564949,41.80284 16.226562,63.5491 -0.338385,21.74625 -17.69308,43.70343 -17.580078,65.55615 0.113002,21.85272 17.693661,43.59968 17.69336,65.02924 -2.94e-4,20.92518 -16.769039,41.54787 -33.9257815,62.16409 H 55.590468 c -0.231602,-1.831 -0.385285,-3.65653 -0.365235,-5.46682 0.225665,-20.37386 17.127818,-39.37552 17.240238,-59.64475 0.11241,-20.26921 -16.56496,-41.8047 -16.22657,-63.55092 0.33838,-21.74624 17.69308,-43.70347 17.58008,-65.55616 -0.113,-21.8527 -17.69366,-43.597871 -17.69336,-65.027404 2.7e-4,-18.992793 13.81576,-37.73808 29.19532,-56.4539316 z"
       id="path7596" />
    <path
       style="display:inline;fill:#ffffff;fill-opacity:1;stroke:none;stroke-width:0.996895;stroke-miterlimit:0.4;stroke-dasharray:none;stroke-dashoffset:11.7;stroke-opacity:1;paint-order:stroke fill markers"
       d="M 71.785837,0.93420018 C 71.428799,21.215741 54.671236,40.147387 54.559275,60.335607 54.446863,80.604855 71.124224,102.13844 70.785837,123.8847 c -0.338385,21.74624 -17.69308,43.70342 -17.580078,65.55614 0.113002,21.85272 17.693661,43.59968 17.69336,65.02924 -2.94e-4,20.92518 -18.938562,53.11866 -28.863561,62.88726 l 46.36942,-0.72317 c -0.231602,-1.831 358.458602,2.42906 358.458602,2.42906 L 448.00773,0.93420018 Z"
       id="path7596-0"
       sodipodi:nodetypes="cssssccccc" />
  </g>
</svg>
