<?xml version="1.0" encoding="UTF-8" standalone="no"?>
<svg
   height="443.91367"
   viewBox="0 0 318.12903 443.91367"
   width="318.12903"
   version="1.1"
   id="svg2099"
   sodipodi:docname="decor-vertical-waves-sym.svg"
   inkscape:version="1.2.2 (b0a8486, 2022-12-01)"
   inkscape:export-filename="../../repos/portfolio/public/images/projects/decor-horizontal-waves-sym.svg"
   inkscape:export-xdpi="96"
   inkscape:export-ydpi="96"
   xmlns:inkscape="http://www.inkscape.org/namespaces/inkscape"
   xmlns:sodipodi="http://sodipodi.sourceforge.net/DTD/sodipodi-0.dtd"
   xmlns="http://www.w3.org/2000/svg"
   xmlns:svg="http://www.w3.org/2000/svg">
  <defs
     id="defs2103" />
  <sodipodi:namedview
     id="namedview2101"
     pagecolor="#ffffff"
     bordercolor="#000000"
     borderopacity="0.25"
     inkscape:showpageshadow="2"
     inkscape:pageopacity="0.0"
     inkscape:pagecheckerboard="0"
     inkscape:deskcolor="#d1d1d1"
     showgrid="true"
     inkscape:zoom="0.90133253"
     inkscape:cx="266.27243"
     inkscape:cy="100.40689"
     inkscape:window-width="930"
     inkscape:window-height="871"
     inkscape:window-x="57"
     inkscape:window-y="38"
     inkscape:window-maximized="0"
     inkscape:current-layer="g2097"
     showguides="false">
    <inkscape:grid
       type="xygrid"
       id="grid291" />
  </sodipodi:namedview>
  <g
     fill="none"
     fill-rule="evenodd"
     id="g2097"
     transform="translate(-85.95713,80.928871)">
    <path
       style="fill:#c2e1f5;fill-opacity:0.65;stroke:none;stroke-width:0.996895;stroke-miterlimit:0.4;stroke-dasharray:none;stroke-dashoffset:11.7;stroke-opacity:1;paint-order:stroke fill markers"
       d="m 403.89393,-46.116373 c -20.28154,-0.35704 -39.21319,-17.1146 -59.40141,-17.22656 -20.26925,-0.11241 -41.80284,16.56495 -63.5491,16.22656 -21.74625,-0.33839 -43.70343,-17.69308 -65.55615,-17.58008 -21.85272,0.113 -43.59968,17.69366 -65.02924,17.69336 -20.92518,-2.9e-4 -41.54787,-16.76904 -62.164091,-33.92578 v 51.43164 c 1.831,-0.2316 3.65653,-0.38528 5.46682,-0.36523 20.373861,0.22566 39.375521,17.12781 59.644751,17.24023 20.26921,0.11241 41.8047,-16.56496 63.55092,-16.22657 21.74624,0.33838 43.70347,17.69308 65.55616,17.58008 21.8527,-0.113 43.59787,-17.69366 65.02741,-17.69336 18.99279,2.7e-4 37.73808,13.81576 56.45393,29.19531953 z"
       id="path7596"
       inkscape:export-filename="decor-vertical-waves-sym.svg"
       inkscape:export-xdpi="96"
       inkscape:export-ydpi="96" />
    <path
       style="display:inline;fill:#ffffff;fill-opacity:1;stroke:none;stroke-width:0.996895;stroke-miterlimit:0.4;stroke-dasharray:none;stroke-dashoffset:11.7;stroke-opacity:1;paint-order:stroke fill markers"
       d="m 404.08616,-13.825185 c -20.28154,-0.357038 -39.21319,-16.526508 -59.40141,-16.638469 -20.26925,-0.112412 -41.80283,16.564949 -63.54909,16.226562 -21.74624,-0.338385 -43.70342,-17.69308 -65.55614,-17.580078 -21.85272,0.113002 -43.59968,17.693661 -65.02924,17.69336 -20.92518,-2.94e-4 -52.530568,-17.370315 -62.299168,-27.295314 l 0.135077,44.8011731 c 1.831,-0.231602 -2.42906,358.4586009 -2.42906,358.4586009 l 318.129031,1.14415 z"
       id="path7596-0"
       sodipodi:nodetypes="cssssccccc" />
  </g>
</svg>
