<?xml version="1.0" encoding="UTF-8" standalone="no"?>
<svg
   height="316"
   viewBox="0 0 446 316"
   width="446"
   version="1.1"
   id="svg2099"
   sodipodi:docname="decor-horizontal-arrow.svg"
   inkscape:version="1.2.2 (b0a8486, 2022-12-01)"
   inkscape:export-filename="../repos/portfolio/public/images/projects/decor-horizontal-3.png"
   inkscape:export-xdpi="96"
   inkscape:export-ydpi="96"
   xmlns:inkscape="http://www.inkscape.org/namespaces/inkscape"
   xmlns:sodipodi="http://sodipodi.sourceforge.net/DTD/sodipodi-0.dtd"
   xmlns="http://www.w3.org/2000/svg"
   xmlns:svg="http://www.w3.org/2000/svg">
  <defs
     id="defs2103" />
  <sodipodi:namedview
     id="namedview2101"
     pagecolor="#ffffff"
     bordercolor="#000000"
     borderopacity="0.25"
     inkscape:showpageshadow="2"
     inkscape:pageopacity="0.0"
     inkscape:pagecheckerboard="0"
     inkscape:deskcolor="#d1d1d1"
     showgrid="false"
     inkscape:zoom="0.95551021"
     inkscape:cx="131.86672"
     inkscape:cy="134.48313"
     inkscape:window-width="1309"
     inkscape:window-height="763"
     inkscape:window-x="2079"
     inkscape:window-y="116"
     inkscape:window-maximized="0"
     inkscape:current-layer="g2097"
     showguides="false" />
  <g
     fill="none"
     fill-rule="evenodd"
     id="g2097">
    <rect
       style="display:none;fill:#74e08c;fill-opacity:0.406685;stroke-width:43.6358;stroke-miterlimit:0.4;stroke-dasharray:87.2716, 43.6358;stroke-dashoffset:170.18;paint-order:stroke fill markers"
       id="rect12996"
       width="467.63745"
       height="355.82639"
       x="-7.7353511"
       y="-4.2192855"
       inkscape:label="rect12996" />
    <path
       d="M 274.54905,316 H 446 V 0 H 67.636959 C 67.311391,-3.5362758 98.567388,39.153847 99.772378,86.565698 91.802156,127.68242 72.99589,160.8722 68.06085,181.24228 c -4.00198,16.51869 14.419195,48.30062 22.366012,64.00486 10.886388,21.51331 15.429868,48.46652 29.132078,70.65906 z"
       fill="#ffffff"
       id="path2091"
       sodipodi:nodetypes="cccccsscc"
       inkscape:export-filename="../repos/portfolio/public/images/projects/decor-horizontal-2.svg"
       inkscape:export-xdpi="96"
       inkscape:export-ydpi="96"
       style="display:none" />
    <path
       style="display:none;fill:#747fe0;fill-opacity:0.470752;stroke-width:44.384;stroke-miterlimit:0.4;stroke-dasharray:88.768, 44.384;stroke-dashoffset:173.098;paint-order:stroke fill markers"
       d="m 6.2696625,-0.06091846 c 0,0 33.4406005,34.55162746 36.0908265,56.83713346 C 46.26938,89.64571 17.75959,126.20316 10.274276,150.75293 -3.5623893,196.1334 47.621408,289.71856 55.633268,316.49554 l 63.315902,-0.007 C 108.3659,271.23791 59.40718,210.28045 70.197711,171.88796 75.603876,152.65293 108.37365,85.57555 97.844712,47.398172 89.896382,18.577943 62.253835,-0.01375205 62.253835,-0.01375205 Z"
       id="path4963"
       sodipodi:nodetypes="cssccsscc"
       inkscape:export-filename="../repos/portfolio/public/images/projects/decor-horizontal-2.svg"
       inkscape:export-xdpi="96"
       inkscape:export-ydpi="96"
       inkscape:label="path4963" />
    <path
       style="fill:#747fe0;fill-opacity:0.231198;stroke-width:44.8947;stroke-miterlimit:0.4;stroke-dasharray:89.7895, 44.8947;stroke-dashoffset:175.09;paint-order:stroke fill markers"
       d="M 70.403635,0.49470634 1.8614436,0.26995642 57.82091,118.7892 2.0009257,317.66156 75.703591,316.64582 101.64974,117.55065 Z"
       id="path9100"
       sodipodi:nodetypes="ccccccc" />
    <path
       style="fill:#747fe0;fill-opacity:0.406685;stroke-width:44.8947;stroke-miterlimit:0.4;stroke-dasharray:89.7895, 44.8947;stroke-dashoffset:175.09;paint-order:stroke fill markers"
       d="M 69.777908,-0.03899293 40.202364,-0.23956569 80.319729,116.63178 c 0,0 -36.302598,200.13791 -35.117974,199.80409 -38.6587076,-0.5131 15.733424,-0.41543 28.264993,0.31566 L 101.15854,116.42365 Z"
       id="path9100-0"
       sodipodi:nodetypes="ccccccc" />
    <path
       style="fill:#ffffff;fill-opacity:1;stroke-width:43.3013;stroke-miterlimit:0.4;stroke-dasharray:86.6025, 43.3013;stroke-dashoffset:168.875;paint-order:stroke fill markers"
       d="M 69.91933,-0.64014978 101.45608,118.18909 73.162141,316.29585 451.93289,317.43394 450.53785,0.84678899 Z"
       id="path10747"
       sodipodi:nodetypes="cccccc" />
    <rect
       style="display:none;fill:#ff0000;fill-opacity:0.206128;stroke-width:44.384;stroke-miterlimit:0.4;stroke-dasharray:88.768, 44.384;stroke-dashoffset:173.098;paint-order:stroke fill markers"
       id="rect6569"
       width="488.25879"
       height="353.19064"
       x="-16.778652"
       y="-14.261855"
       inkscape:export-filename="../repos/portfolio/public/images/projects/decor-horizontal-2.svg"
       inkscape:export-xdpi="96"
       inkscape:export-ydpi="96" />
  </g>
</svg>
