<?xml version="1.0" encoding="UTF-8" standalone="no"?>
<svg
   height="316"
   viewBox="0 0 446 316"
   width="446"
   version="1.1"
   id="svg2099"
   sodipodi:docname="decor-horizontal-waves.svg"
   inkscape:version="1.2.2 (b0a8486, 2022-12-01)"
   inkscape:export-filename="../../repos/portfolio/public/images/projects/decor-horizontal-waves.svg"
   inkscape:export-xdpi="96"
   inkscape:export-ydpi="96"
   xmlns:inkscape="http://www.inkscape.org/namespaces/inkscape"
   xmlns:sodipodi="http://sodipodi.sourceforge.net/DTD/sodipodi-0.dtd"
   xmlns="http://www.w3.org/2000/svg"
   xmlns:svg="http://www.w3.org/2000/svg">
  <defs
     id="defs2103" />
  <sodipodi:namedview
     id="namedview2101"
     pagecolor="#ffffff"
     bordercolor="#000000"
     borderopacity="0.25"
     inkscape:showpageshadow="2"
     inkscape:pageopacity="0.0"
     inkscape:pagecheckerboard="0"
     inkscape:deskcolor="#d1d1d1"
     showgrid="false"
     inkscape:zoom="1.4789411"
     inkscape:cx="215.01871"
     inkscape:cy="153.82628"
     inkscape:window-width="1309"
     inkscape:window-height="763"
     inkscape:window-x="203"
     inkscape:window-y="60"
     inkscape:window-maximized="0"
     inkscape:current-layer="g2097"
     showguides="false" />
  <g
     fill="none"
     fill-rule="evenodd"
     id="g2097">
    <rect
       style="display:none;fill:#74e08c;fill-opacity:0.406685;stroke-width:43.6358;stroke-miterlimit:0.4;stroke-dasharray:87.2716, 43.6358;stroke-dashoffset:170.18;paint-order:stroke fill markers"
       id="rect12996"
       width="467.63745"
       height="355.82639"
       x="-7.7353511"
       y="-4.2192855"
       inkscape:label="rect12996" />
    <path
       d="M 274.54905,316 H 446 V 0 H 67.636959 C 67.311391,-3.5362758 98.567388,39.153847 99.772378,86.565698 91.802156,127.68242 72.99589,160.8722 68.06085,181.24228 c -4.00198,16.51869 14.419195,48.30062 22.366012,64.00486 10.886388,21.51331 15.429868,48.46652 29.132078,70.65906 z"
       fill="#ffffff"
       id="path2091"
       sodipodi:nodetypes="cccccsscc"
       inkscape:export-filename="../repos/portfolio/public/images/projects/decor-horizontal-2.svg"
       inkscape:export-xdpi="96"
       inkscape:export-ydpi="96"
       style="display:none" />
    <path
       style="display:none;fill:#747fe0;fill-opacity:0.470752;stroke-width:44.384;stroke-miterlimit:0.4;stroke-dasharray:88.768, 44.384;stroke-dashoffset:173.098;paint-order:stroke fill markers"
       d="m 6.2696625,-0.06091846 c 0,0 33.4406005,34.55162746 36.0908265,56.83713346 C 46.26938,89.64571 17.75959,126.20316 10.274276,150.75293 -3.5623893,196.1334 47.621408,289.71856 55.633268,316.49554 l 63.315902,-0.007 C 108.3659,271.23791 59.40718,210.28045 70.197711,171.88796 75.603876,152.65293 108.37365,85.57555 97.844712,47.398172 89.896382,18.577943 62.253835,-0.01375205 62.253835,-0.01375205 Z"
       id="path4963"
       sodipodi:nodetypes="cssccsscc"
       inkscape:export-filename="../repos/portfolio/public/images/projects/decor-horizontal-2.svg"
       inkscape:export-xdpi="96"
       inkscape:export-ydpi="96"
       inkscape:label="path4963" />
    <rect
       style="display:none;fill:#ff0000;fill-opacity:0.206128;stroke-width:44.384;stroke-miterlimit:0.4;stroke-dasharray:88.768, 44.384;stroke-dashoffset:173.098;paint-order:stroke fill markers"
       id="rect6569"
       width="488.25879"
       height="353.19064"
       x="-16.778652"
       y="-14.261855"
       inkscape:export-filename="../repos/portfolio/public/images/projects/decor-horizontal-2.svg"
       inkscape:export-xdpi="96"
       inkscape:export-ydpi="96" />
    <path
       style="fill:#737ddf;fill-opacity:0.2;stroke-width:53.7092;stroke-miterlimit:0.4;stroke-dasharray:107.418, 53.7092;stroke-dashoffset:209.467;paint-order:stroke fill markers"
       d="m 80.514881,-0.67615946 c 0,0 -26.75823,33.62203246 -24.005509,52.74043846 2.718077,18.877797 33.491817,24.613232 37.43228,43.274205 6.184518,29.288196 -25.864379,55.941036 -26.275033,85.872256 -0.2887,21.04238 18.969268,39.92118 16.808801,60.85435 -2.888407,27.98633 -38.615252,75.0537 -38.615252,75.0537 l -46.53632664,0.67616 c 0,0 31.21501764,-39.67188 34.84878064,-63.55899 3.804126,-25.00702 -18.450369,-49.31295 -15.046088,-74.37754 3.435575,-25.295 36.528191,-44.23398 34.654712,-68.29211 C 52.134756,90.423048 13.962624,75.265394 14.175859,54.092757 14.377878,34.033834 52.791111,0 52.791111,0 Z"
       id="path2837"
       sodipodi:nodetypes="caaaaccaaaacc" />
    <path
       style="fill:#ffffff;fill-opacity:1;stroke-width:53.7092;stroke-miterlimit:0.4;stroke-dasharray:107.418, 53.7092;stroke-dashoffset:209.467;paint-order:stroke fill markers"
       d="M 447.97184,-1.6904003 C 418.05074,112.17527 518.78643,222.67363 447.1251,318.80918 L 47.633534,317.45687 c 0,0 33.474973,-45.99373 36.2011,-73.02523 C 86.150951,221.46371 64.923201,200.5471 66.083908,177.49186 67.379465,151.75808 96.430998,130.71832 93.300866,105.14279 90.474472,82.049022 54.869431,70.905687 53.695479,47.66924 52.748227,28.919952 80.81602,-1.6904008 80.81602,-1.6904008 Z"
       id="path2837-1"
       sodipodi:nodetypes="cccaaaacc" />
  </g>
</svg>
