<?xml version="1.0" encoding="UTF-8" standalone="no"?>
<svg
   height="447.15015"
   viewBox="0 0 319.23083 447.15015"
   width="319.23083"
   version="1.1"
   id="svg2099"
   sodipodi:docname="decor-vertical-waves.svg"
   inkscape:version="1.2.2 (b0a8486, 2022-12-01)"
   inkscape:export-filename="../../repos/portfolio/public/images/projects/decor-vertical-waves.svg"
   inkscape:export-xdpi="96"
   inkscape:export-ydpi="96"
   xmlns:inkscape="http://www.inkscape.org/namespaces/inkscape"
   xmlns:sodipodi="http://sodipodi.sourceforge.net/DTD/sodipodi-0.dtd"
   xmlns="http://www.w3.org/2000/svg"
   xmlns:svg="http://www.w3.org/2000/svg">
  <defs
     id="defs2103" />
  <sodipodi:namedview
     id="namedview2101"
     pagecolor="#ffffff"
     bordercolor="#000000"
     borderopacity="0.25"
     inkscape:showpageshadow="2"
     inkscape:pageopacity="0.0"
     inkscape:pagecheckerboard="0"
     inkscape:deskcolor="#d1d1d1"
     showgrid="false"
     inkscape:zoom="0.98531875"
     inkscape:cx="275.0379"
     inkscape:cy="241.03875"
     inkscape:window-width="1309"
     inkscape:window-height="763"
     inkscape:window-x="203"
     inkscape:window-y="60"
     inkscape:window-maximized="0"
     inkscape:current-layer="g2097"
     showguides="false" />
  <g
     fill="none"
     fill-rule="evenodd"
     id="g2097"
     transform="translate(-85.98716,88.844955)">
    <rect
       style="display:none;fill:#74e08c;fill-opacity:0.406685;stroke-width:43.6358;stroke-miterlimit:0.4;stroke-dasharray:87.2716, 43.6358;stroke-dashoffset:170.18;paint-order:stroke fill markers"
       id="rect12996"
       width="467.63745"
       height="355.82639"
       x="-7.7353511"
       y="-4.2192855"
       inkscape:label="rect12996" />
    <path
       d="M 274.54905,316 H 446 V 0 H 67.636959 C 67.311391,-3.5362758 98.567388,39.153847 99.772378,86.565698 91.802156,127.68242 72.99589,160.8722 68.06085,181.24228 c -4.00198,16.51869 14.419195,48.30062 22.366012,64.00486 10.886388,21.51331 15.429868,48.46652 29.132078,70.65906 z"
       fill="#ffffff"
       id="path2091"
       sodipodi:nodetypes="cccccsscc"
       inkscape:export-filename="../repos/portfolio/public/images/projects/decor-horizontal-2.svg"
       inkscape:export-xdpi="96"
       inkscape:export-ydpi="96"
       style="display:none" />
    <path
       style="display:none;fill:#747fe0;fill-opacity:0.470752;stroke-width:44.384;stroke-miterlimit:0.4;stroke-dasharray:88.768, 44.384;stroke-dashoffset:173.098;paint-order:stroke fill markers"
       d="m 6.2696625,-0.06091846 c 0,0 33.4406005,34.55162746 36.0908265,56.83713346 C 46.26938,89.64571 17.75959,126.20316 10.274276,150.75293 -3.5623893,196.1334 47.621408,289.71856 55.633268,316.49554 l 63.315902,-0.007 C 108.3659,271.23791 59.40718,210.28045 70.197711,171.88796 75.603876,152.65293 108.37365,85.57555 97.844712,47.398172 89.896382,18.577943 62.253835,-0.01375205 62.253835,-0.01375205 Z"
       id="path4963"
       sodipodi:nodetypes="cssccsscc"
       inkscape:export-filename="../repos/portfolio/public/images/projects/decor-horizontal-2.svg"
       inkscape:export-xdpi="96"
       inkscape:export-ydpi="96"
       inkscape:label="path4963" />
    <rect
       style="display:none;fill:#ff0000;fill-opacity:0.206128;stroke-width:44.384;stroke-miterlimit:0.4;stroke-dasharray:88.768, 44.384;stroke-dashoffset:173.098;paint-order:stroke fill markers"
       id="rect6569"
       width="488.25879"
       height="353.19064"
       x="-16.778652"
       y="-14.261855"
       inkscape:export-filename="../repos/portfolio/public/images/projects/decor-horizontal-2.svg"
       inkscape:export-xdpi="96"
       inkscape:export-ydpi="96" />
    <path
       style="fill:#737ddf;fill-opacity:0.2;stroke-width:53.7092;stroke-miterlimit:0.4;stroke-dasharray:107.418, 53.7092;stroke-dashoffset:209.467;paint-order:stroke fill markers"
       d="m 404.45827,-7.6539155 c 0,0 -33.62204,-26.7582295 -52.74044,-24.0054995 -18.8778,2.71807 -24.61323,33.4918095 -43.27421,37.4322795 -29.28819,6.1845105 -55.94103,-25.8643795 -85.87225,-26.2750395 -21.04238,-0.2887 -39.92118,18.9692694 -60.85435,16.8087995 -27.98633,-2.8884 -75.053703,-38.6152495 -75.053703,-38.6152495 l -0.67616,-46.53633 c 0,0 39.671883,31.21502 63.558993,34.84879 25.00702,3.80412 49.31295,-18.45037 74.37754,-15.04609 25.295,3.43557 44.23398,36.52819 68.29211,34.65471 21.14326,-1.64649 34.20783,-39.736226 57.47355,-39.60539 22.54633,0.126791 55.26125,39.004748 55.26125,39.004748 z"
       id="path2837"
       sodipodi:nodetypes="caaaaccaaaacc"
       inkscape:export-filename="../../repos/portfolio/public/images/projects/path2837.svg"
       inkscape:export-xdpi="96"
       inkscape:export-ydpi="96" />
    <path
       style="fill:#ffffff;fill-opacity:1;stroke-width:53.4561;stroke-miterlimit:0.4;stroke-dasharray:106.912, 53.4561;stroke-dashoffset:208.48;paint-order:stroke fill markers"
       d="m 405.21799,357.34358 c -5.31506,-0.38495 -316.88291,0.9616 -316.88291,0.9616 L 86.948196,-42.74438 c 0,0 48.287694,35.0329642 75.065004,37.7590902 22.75195,2.316316 43.47186,-18.9114322 66.31029,-17.7507262 25.49179,1.295557 46.3337,30.3470902 71.66872,27.2169582 22.8766,-2.826394 33.94998,-37.8702182 56.93309,-39.6053872 17.6441,-1.332086 47.70125,23.50387 47.70125,23.50387 z"
       id="path2837-1"
       sodipodi:nodetypes="ccccccccc" />
  </g>
</svg>
